<?xml version="1.0" standalone="no"?>
<!DOCTYPE svg PUBLIC "-//W3C//DTD SVG 20010904//EN"
 "http://www.w3.org/TR/2001/REC-SVG-20010904/DTD/svg10.dtd">
<svg version="1.0" xmlns="http://www.w3.org/2000/svg"
 width="841.000000pt" height="1280.000000pt" viewBox="0 0 841.000000 1280.000000"
 preserveAspectRatio="xMidYMid meet">
<metadata>
Created by potrace 1.15, written by Peter Selinger 2001-2017
</metadata>
<g transform="translate(0.000000,1280.000000) scale(0.100000,-0.100000)"
fill="#ff0000" stroke="none">
<path d="M3962 12789 c-1248 -68 -2414 -704 -3155 -1721 -386 -530 -650 -1163
-751 -1803 -75 -473 -68 -975 20 -1445 89 -475 268 -944 525 -1375 268 -449
644 -869 1065 -1187 176 -133 454 -311 584 -373 34 -16 37 -22 174 -393 612
-1657 1127 -2985 1622 -4180 l129 -312 115 2 114 3 58 160 c31 88 155 439 276
780 121 341 245 692 277 780 31 87 132 373 225 635 93 262 194 548 225 635 53
149 388 1094 580 1635 l83 235 103 58 c585 327 1073 771 1442 1310 625 911
862 2021 666 3117 -183 1019 -749 1945 -1579 2581 -399 307 -891 557 -1365
694 -345 100 -613 145 -980 165 -207 11 -240 11 -453 -1z"/>
</g>
</svg>
